<svg width="217" height="47" viewBox="0 0 217 47" fill="none" xmlns="http://www.w3.org/2000/svg">
<path d="M125.098 35.5873C125.098 35.5873 126.127 36.8199 126.67 37.3346C126.67 37.3346 125.492 37.5257 125.011 37.1951C124.619 36.9311 124.65 36.509 124.755 36.3164C124.861 36.1241 125.098 35.5873 125.098 35.5873ZM128.639 25.7669C128.096 27.4403 126.089 27.1942 126.089 27.1942C125.76 24.553 127.981 24.1593 127.981 24.1593C128.03 23.5031 127.767 23.1914 127.767 23.1914C126.978 23.3226 126.056 24.0609 126.056 24.0609C125.859 23.4046 125.448 22.6008 125.448 22.6008L124.658 23.1586C124.658 23.1586 125.316 24.1593 125.283 25.5536C125.25 27.9652 124.181 28.3754 124.181 28.3754C124.181 28.3754 122.882 27.3747 123.178 24.7663C123.474 22.1579 125.744 21.7313 125.744 21.7313L125.793 20.7963C124.714 20.9445 124.296 21.3376 124.296 21.3376C124.05 19.5165 125.543 19.0112 126.3 19.1086C127.041 19.204 126.982 19.6415 126.85 19.7726C126.719 19.9037 126.879 20.1565 126.945 20.2876C127.01 20.419 127.142 20.4353 127.471 20.3205C127.696 20.242 128.023 20.2113 128.217 20.3779C128.595 20.7026 128.535 21.3633 128.512 21.9034C128.491 22.4156 128.521 22.9861 128.653 23.4455C128.784 23.9048 129.019 24.4871 128.639 25.7669ZM122.421 27.1472C122.421 27.1472 120.889 27.5438 120.047 26.1325C119.205 24.7212 119.708 22.4703 120.199 21.5722C120.76 20.6741 122.304 19.8461 122.304 19.8461C122.304 19.8461 123.578 20.4759 123.356 22.2836C123.356 22.2836 122.76 23.1467 122.386 24.0448C122.386 24.0448 121.427 23.1118 120.643 23.205C120.643 23.205 120.444 23.6133 120.386 24.1031C120.386 24.1031 122.514 23.9048 122.421 27.1472ZM121.174 17.9076C120.448 17.5383 120.41 17.0944 120.281 16.9682C120.13 16.8207 119.93 16.8008 119.737 17.1406C119.545 17.4806 118.996 17.3646 118.638 17.3192C118.241 17.2692 117.351 17.0653 117.351 17.0653C117.687 16.722 119.04 16.1935 120.285 16.5184C121.9 16.9324 122.67 18.4102 122.67 18.4102C122.374 18.3954 121.9 18.2773 121.174 17.9076ZM121.608 15.809C121.65 15.7062 121.689 15.593 121.768 15.5126C121.88 15.3994 122.215 15.6228 122.32 15.6823C122.546 15.8088 122.759 15.9575 122.954 16.1256C123.438 16.5419 123.815 17.0937 123.914 17.7329C123.932 17.848 123.941 17.9643 123.941 18.0803C123.941 18.1168 123.941 18.4484 123.914 18.453C123.914 18.453 123.649 18.4959 123.494 18.2035C123.238 17.7212 122.928 17.2544 122.566 16.8449C122.403 16.6613 122.226 16.4863 122.025 16.3455C121.935 16.2827 121.84 16.2269 121.739 16.1845C121.688 16.1631 121.529 16.1514 121.494 16.0929C121.491 16.0889 121.489 16.0843 121.488 16.0797C121.471 16.0126 121.582 15.8743 121.608 15.809ZM121.794 14.506C121.817 14.2415 122.114 13.9086 122.339 13.7112C122.631 13.4546 124.175 11.9266 124.584 11.3552C124.584 11.3552 126.739 13.2964 127.359 13.7512C127.558 13.9028 127.579 14.1033 127.451 14.2316C127.322 14.3599 127.076 14.5364 126.854 14.3458C126.692 14.2058 126.572 14.026 126.42 14.0959C126.173 14.2099 126.169 14.6578 126.18 14.8777C126.19 15.078 126.077 15.0402 125.946 14.9479C125.851 14.8808 125.765 14.8004 125.683 14.7185C125.467 14.5009 125.309 14.2313 125.204 13.9443C125.029 13.2561 125.015 13.0732 124.676 13.0497C124.395 13.0265 124.248 13.2482 123.848 14.2594C123.59 14.9124 123.173 15.1438 123.009 15.0854C122.846 15.0269 123.047 14.5961 123.094 14.4678C123.141 14.3395 123.052 14.1874 122.841 14.0943C122.631 14.001 122.444 14.1775 122.351 14.3175C122.28 14.4226 122.215 14.6354 122.053 14.7058C121.883 14.7798 121.778 14.6861 121.794 14.506ZM124.602 17.5679C124.342 17.5291 124.158 16.9151 124.097 16.4536C124.051 16.1085 123.858 15.7453 123.858 15.7453C124.158 15.4188 124.345 14.5889 124.475 14.3604C124.565 14.2045 124.885 14.1515 124.95 14.6178C125.067 15.2787 125.482 15.6805 125.482 15.6805C125.327 15.8231 125.262 16.1988 125.184 16.445C125.106 16.6911 124.861 17.6066 124.602 17.5679ZM125.228 17.9263C125.294 17.7536 125.368 17.5837 125.446 17.4158C125.619 17.0434 125.811 16.6723 126.049 16.3366C126.091 16.2774 126.135 16.2195 126.181 16.1641C126.638 15.6218 127.37 15.4861 127.457 15.521C127.545 15.556 127.449 16.0437 127.344 16.1662C127.239 16.2886 125.765 18.2482 125.643 18.353C125.545 18.4367 125.32 18.3576 125.221 18.3094C125.186 18.2926 125.164 18.2704 125.152 18.2446C125.11 18.1538 125.191 18.0207 125.228 17.9263ZM128.988 16.5184C130.233 16.1935 131.586 16.722 131.922 17.0653C131.922 17.0653 131.032 17.2692 130.635 17.3192C130.277 17.3646 129.728 17.4806 129.536 17.1406C129.343 16.8008 129.143 16.8207 128.992 16.9682C128.863 17.0944 128.825 17.5383 128.099 17.9076C127.373 18.2773 126.899 18.3954 126.602 18.4102C126.602 18.4102 127.373 16.9324 128.988 16.5184ZM136.355 21.4687C135.602 21.4784 134.617 21.334 134.617 21.334C134.617 21.0835 134.75 20.9156 134.875 20.7325C135.001 20.5496 134.752 20.3516 134.636 20.2746C134.52 20.1976 134.347 20.2649 134.298 20.3325C134.25 20.3999 134.009 20.7657 133.651 20.8236C133.294 20.8812 132.705 20.496 132.386 20.2649C132.068 20.0338 131.172 19.4971 131.172 19.4971C131.994 18.8563 132.848 19.2657 133.382 19.4463C133.673 19.5453 133.848 19.4134 133.918 19.2395C133.994 19.0507 133.904 18.9165 133.734 18.829C133.417 18.6658 132.803 18.504 132.26 18.4977C131.335 18.4806 130.992 18.754 130.375 19.1298C129.639 19.1895 127.566 19.1298 127.566 19.1298C128.217 18.1987 131.832 17.6946 132.919 17.7372C134.007 17.7801 134.658 19.0698 135.283 19.6764C135.908 20.283 136.525 20.5733 136.928 20.471C137.33 20.3685 137.228 20.1889 136.739 19.8473C136.054 19.3517 135.78 19.2066 135.866 19.0356C135.951 18.865 136.354 19.0698 136.551 19.053C136.748 19.0356 136.737 18.8415 136.703 18.5767C136.669 18.312 136.191 18.2671 136.191 18.2671C135.069 18.1303 134.024 17.6605 133.879 17.5495C133.733 17.4383 133.93 17.2931 134.033 17.2164C134.136 17.1393 134.213 17.071 134.512 17.259C134.812 17.447 135.575 17.6434 135.84 17.652C136.106 17.6605 136.388 17.6434 136.371 17.3957C136.354 17.148 136.268 16.849 136.054 16.8574C135.84 16.8661 135.292 17.0199 135.258 16.8148C135.223 16.6098 135.606 16.4572 135.803 16.3376C136 16.2182 135.777 15.8751 135.666 15.7726C135.555 15.67 135.323 15.7641 135.135 15.8751C134.947 15.9861 133.579 16.6524 133.193 16.7722C132.808 16.8916 132.594 16.6524 132.585 16.4218C132.577 16.1912 133.168 16.0886 133.253 15.9264C133.339 15.7641 133.125 15.5249 133.048 15.4652C132.971 15.4052 132.808 15.4565 132.517 15.5677C132.225 15.6787 131.737 15.7213 131.737 15.7213C131.398 15.7562 131.309 15.5422 131.157 15.3205C131.005 15.0991 130.829 15.1456 130.677 15.2856C130.525 15.4256 130.116 15.7754 129.777 15.7639C129.553 15.7562 129.326 15.7948 129.106 15.8294C128.898 15.8621 128.678 15.9238 128.467 15.8825C128.158 15.8218 128.286 15.482 128.449 15.33C128.589 15.1984 128.803 15.1078 128.993 15.0874C129.321 15.0524 131.168 14.644 131.812 14.5742C132.455 14.504 132.509 14.6731 133.073 14.9678C133.636 15.2626 134.372 15.1961 134.685 15.0902C134.997 14.9846 134.924 14.7731 134.924 14.7731C134.913 14.6915 134.835 14.4956 134.774 14.4112C134.701 14.3112 134.481 14.3645 134.481 14.3645C133.698 14.4461 133.273 14.3061 133.273 14.3061C133.332 14.0028 133.882 13.8395 133.963 13.6528C134.045 13.4661 133.706 13.1862 133.496 13.1281C133.285 13.0696 133.016 13.3028 133.016 13.3028C132.127 14.0028 130.432 14.1193 130.432 14.1193C130.432 14.1193 130.56 13.7344 130.666 13.5829C130.771 13.4311 131.028 13.3844 131.028 13.3844C132.361 13.501 132.876 12.7079 132.911 12.5914C132.946 12.4748 132.572 12.2299 132.467 12.1832C132.361 12.1365 132.256 12.3115 132.256 12.3115C132.057 12.6498 131.438 12.5097 131.438 12.5097C131.402 12.4166 131.613 11.9031 131.624 11.6934C131.636 11.4832 131.204 11.3435 131.204 11.3435C131.063 11.3085 131.028 11.4251 131.028 11.4251C130.874 12.0865 130.362 12.0082 130.022 12.0666C129.683 12.1248 129.695 12.3697 129.788 12.5681C129.959 12.9286 129.797 13.4138 129.596 13.7229C129.142 14.4229 128.506 14.5563 128.318 14.3987C127.967 14.002 128.677 13.3495 128.935 13.1163C129.227 12.8712 128.946 12.6266 128.806 12.5097C128.666 12.3931 128.502 12.5681 128.502 12.5681C128.221 12.813 127.929 12.7663 127.929 12.7663C127.929 12.7663 127.917 12.4865 127.952 12.2416C127.987 11.9965 128.45 11.9047 128.45 11.9047C129.621 11.6868 130.034 10.9585 129.964 10.807C129.885 10.6364 129.641 10.4787 129.303 10.7958C128.886 11.1322 128.271 10.9738 128.271 10.9738C128.271 10.9738 128.251 10.8353 128.311 10.4392C128.331 9.90451 127.596 9.98359 127.437 10.3996C127.258 10.8749 127.08 12.6967 127.08 12.6967C126.623 12.4789 125.908 11.8452 125.908 11.6473C125.908 11.4491 126.325 11.0728 126.643 10.7361C127.02 10.2808 127.06 9.88487 126.663 9.78564C126.265 9.68666 126.027 9.94405 125.908 10.3007C125.789 10.657 125.67 10.855 125.372 10.8749C125.074 10.8945 125.129 10.4486 125.109 10.0527C125.089 9.57749 124.657 9.58769 124.657 9.58769H124.616C124.616 9.58769 124.191 9.57749 124.171 10.0527C124.151 10.4486 124.199 10.8945 123.901 10.8749C123.603 10.855 123.484 10.657 123.365 10.3007C123.246 9.94405 123.007 9.68666 122.61 9.78564C122.213 9.88487 122.253 10.2808 122.63 10.7361C122.948 11.0728 123.365 11.4491 123.365 11.6473C123.365 11.8452 122.65 12.4789 122.193 12.6967C122.193 12.6967 122.015 10.8749 121.836 10.3996C121.677 9.98359 120.942 9.90451 120.962 10.4392C121.022 10.8353 121.002 10.9738 121.002 10.9738C121.002 10.9738 120.386 11.1322 119.969 10.7958C119.632 10.4787 119.388 10.6364 119.309 10.807C119.239 10.9585 119.651 11.6868 120.823 11.9047C120.823 11.9047 121.285 11.9965 121.32 12.2416C121.355 12.4865 121.344 12.7663 121.344 12.7663C121.344 12.7663 121.051 12.813 120.77 12.5681C120.77 12.5681 120.607 12.3931 120.467 12.5097C120.326 12.6266 120.046 12.8712 120.338 13.1163C120.595 13.3495 121.305 14.002 120.954 14.3987C120.767 14.5563 120.13 14.4229 119.676 13.7229C119.476 13.4138 119.314 12.9286 119.484 12.5681C119.578 12.3697 119.594 12.0409 119.25 12.0666C118.866 12.0955 118.399 12.0865 118.245 11.4251C118.245 11.4251 118.209 11.3085 118.069 11.3435C118.069 11.3435 117.636 11.4832 117.648 11.6934C117.66 11.9031 117.887 12.4666 117.852 12.56C117.852 12.56 117.18 12.673 116.981 12.3345C116.981 12.3345 116.876 12.1597 116.771 12.2064C116.666 12.2529 116.291 12.498 116.327 12.6146C116.362 12.7311 116.781 13.4811 118.114 13.3645C118.114 13.3645 118.371 13.4112 118.476 13.5627C118.582 13.7145 118.71 14.0994 118.71 14.0994C118.71 14.0994 117.06 14.0431 116.171 13.3434C116.171 13.3434 115.902 13.1099 115.692 13.1684C115.481 13.2265 115.227 13.4661 115.309 13.6528C115.391 13.8395 115.941 14.0028 115.999 14.3061C115.999 14.3061 115.575 14.4461 114.791 14.3645C114.791 14.3645 114.572 14.3112 114.499 14.4112C114.437 14.4956 114.36 14.6915 114.348 14.7731C114.348 14.7731 114.276 14.9846 114.588 15.0902C114.9 15.1961 115.637 15.2626 116.2 14.9678C116.764 14.6731 116.818 14.504 117.461 14.5742C118.104 14.644 119.952 15.0524 120.279 15.0874C120.469 15.1078 120.683 15.1984 120.824 15.33C120.987 15.482 121.115 15.8218 120.805 15.8825C120.594 15.9238 120.374 15.8621 120.167 15.8294C119.947 15.7948 119.72 15.7562 119.496 15.7639C119.157 15.7754 118.762 15.4782 118.61 15.3381C118.458 15.1981 118.283 15.1514 118.131 15.3731C117.979 15.5948 117.874 15.7562 117.535 15.7213C117.535 15.7213 117.047 15.6787 116.756 15.5677C116.465 15.4565 116.302 15.4052 116.225 15.4652C116.148 15.5249 115.934 15.7641 116.019 15.9264C116.105 16.0886 116.696 16.1912 116.687 16.4218C116.679 16.6524 116.465 16.8916 116.079 16.7722C115.694 16.6524 114.326 15.9861 114.138 15.8751C113.949 15.7641 113.718 15.67 113.607 15.7726C113.495 15.8751 113.273 16.2182 113.47 16.3376C113.667 16.4572 114.049 16.6098 114.015 16.8148C113.981 17.0199 113.433 16.8661 113.219 16.8574C113.004 16.849 112.919 17.148 112.902 17.3957C112.884 17.6434 113.167 17.6605 113.433 17.652C113.698 17.6434 114.46 17.447 114.76 17.259C115.06 17.071 115.137 17.1393 115.24 17.2164C115.343 17.2931 115.54 17.4383 115.394 17.5495C115.248 17.6605 114.203 18.1303 113.081 18.2671C113.081 18.2671 112.604 18.312 112.57 18.5767C112.535 18.8415 112.525 19.0356 112.722 19.053C112.919 19.0698 113.321 18.865 113.407 19.0356C113.489 19.1997 113.285 19.3813 113.185 19.4555C113.046 19.5573 112.835 19.6491 112.672 19.703C112.518 19.7535 112.42 19.8394 112.381 20.0029C112.358 20.1019 112.326 20.2386 112.364 20.3366C112.414 20.4654 112.661 20.4394 112.778 20.432C112.941 20.4215 113.098 20.3593 113.24 20.281C113.522 20.1251 113.76 19.8991 113.989 19.6764C114.615 19.0698 115.348 17.813 116.436 17.7702C117.524 17.7276 121.056 18.1987 121.707 19.1298C121.707 19.1298 119.634 19.1895 118.897 19.1298C118.281 18.754 117.938 18.4806 117.013 18.4977C116.469 18.504 115.855 18.6658 115.539 18.829C115.369 18.9165 115.279 19.0507 115.355 19.2395C115.425 19.4134 115.6 19.5453 115.891 19.4463C116.425 19.2657 117.278 18.8563 118.101 19.4971C118.101 19.4971 117.205 20.0338 116.886 20.2649C116.568 20.496 115.979 20.8812 115.621 20.8236C115.264 20.7657 115.023 20.3999 114.974 20.3325C114.926 20.2649 114.752 20.1976 114.636 20.2746C114.521 20.3516 114.272 20.5496 114.397 20.7325C114.523 20.9156 114.656 21.0835 114.656 21.334C114.656 21.334 113.671 21.4784 112.918 21.4687C112.918 21.4687 112.445 21.4085 112.377 21.6224C112.308 21.8362 112.379 22.2056 113.529 22.2542C113.529 22.2542 113.318 22.5213 113.104 22.6574C112.889 22.7934 112.54 23.0127 112.647 23.2071C112.719 23.3377 112.791 23.4536 112.919 23.5346C113.047 23.6148 113.149 23.5457 113.251 23.4636C113.488 23.2726 113.932 22.8767 114.238 22.5212C114.847 21.8144 115.261 21.7137 116.012 21.6486C116.012 21.6486 115.992 22.2081 116.012 22.3332C116.031 22.4585 116.133 22.5185 116.317 22.5281C116.5 22.5377 116.68 22.4443 116.745 22.1853C116.745 22.1853 117.155 21.1735 117.385 21.0656C117.615 20.9577 118.25 21.0253 118.385 21.0656C118.521 21.1062 118.656 21.0792 118.683 20.8228C118.698 20.6833 118.712 20.43 118.746 20.2198C118.785 19.9777 118.873 19.8751 119.127 19.8777C119.612 19.8823 120.657 19.8922 120.698 19.8922C120.731 19.8922 120.804 19.9167 120.801 19.9575C120.798 19.9968 120.743 20.0075 120.716 20.0177C119.801 20.3606 118.949 21.147 118.452 21.9269C118.099 22.4786 117.344 23.2156 116.738 23.4259C116.131 23.6364 114.845 23.4895 114.608 23.5027C114.371 23.5158 114.206 23.6101 114.153 23.9125C114.1 24.2149 114.426 24.2169 114.426 24.2169C115.245 24.3198 116.408 24.3333 116.408 24.3333C116.131 25.0171 115.155 25.2932 114.852 25.3063C114.549 25.3195 114.549 25.6087 114.588 25.8192C114.628 26.0296 114.865 26.0164 114.865 26.0164C115.577 25.9376 116.518 25.4743 116.927 24.9615C117.335 24.4487 117.911 23.6231 118.069 23.4391C118.228 23.255 118.57 22.8473 118.755 22.9525C119.005 23.0841 118.887 23.6364 118.808 24.8329C118.847 26.0427 119.388 27.0158 119.388 27.0158C118.017 27.3972 117.133 25.9901 117.133 25.9901L116.265 26.6391C116.265 26.6391 116.69 27.0299 117.257 27.437C117.77 27.8053 118.607 28.1683 119.882 28.0354C121.157 27.9022 121.832 27.9938 122.157 28.1102C122.482 28.2265 123.267 28.7188 123.47 29.0295C123.725 29.419 123.397 29.9848 123.397 29.9848C122.124 33.2983 123.749 35.0883 123.749 35.0883C123.203 36.2008 122.027 37.4102 122.027 37.4102H123.167C123.167 37.4102 124.307 36.3097 125.131 34.423C126.077 32.089 125.143 30.0937 125.143 30.0937C124.889 30.4445 124.61 30.9886 124.683 32.3189C124.755 33.6491 124.222 34.1328 124.222 34.1328C123.058 31.8352 124.343 29.2109 125.677 28.3764C127.011 27.542 128.418 28.3764 130.188 27.929C131.958 27.4816 133.257 25.2017 133.281 25.0808L132.039 25.012C130.639 27.3396 128.993 27.0539 128.993 27.0539C128.993 27.0539 129.508 26.1675 129.66 25.561C129.847 24.7329 129.695 23.5199 129.695 23.5199C130.137 22.5963 131.146 22.4803 131.581 22.4752C131.714 22.4738 131.869 22.515 131.915 22.3483C131.94 22.2607 131.93 22.1482 131.917 22.062C131.887 21.8687 131.726 21.8069 131.563 21.8123C131.361 21.819 130.689 21.8428 130.114 22.1425C129.676 22.3713 129.331 22.7271 129.331 22.7271C129.202 22.4822 129.227 21.6654 129.215 21.1289C129.204 20.5924 128.888 20.1843 128.888 20.1843C129.052 19.7876 129.673 19.87 129.673 19.87C130.166 19.9762 130.445 20.342 130.716 20.8236C130.986 21.3049 131.305 21.0353 131.353 20.92C131.402 20.8044 131.508 20.6021 131.508 20.6021C132.135 21.0547 132.469 21.95 132.528 22.1853C132.593 22.4443 132.773 22.5377 132.956 22.5281C133.139 22.5185 133.241 22.4585 133.261 22.3332C133.28 22.2081 133.261 21.6486 133.261 21.6486C133.261 21.6486 134.105 21.7191 135.138 22.114C136.295 22.4813 137.071 22.0062 137.139 21.8522C137.206 21.6981 136.888 21.4544 136.355 21.4687Z" fill="#C2971A"/>
<path d="M122.026 21.4896C122.195 21.5259 122.409 21.4984 122.423 21.722C122.445 22.0643 121.905 22.3402 121.794 22.4694C121.683 22.5986 121.606 22.859 121.379 22.875C121.379 22.875 121.595 22.8374 121.618 22.5886C121.637 22.3949 121.605 22.3753 121.545 22.2978C121.433 22.1546 121.378 21.9527 121.396 21.6113C121.403 21.4873 121.473 21.3889 121.594 21.356C121.739 21.3167 121.81 21.3792 121.918 21.4491C121.949 21.469 121.986 21.481 122.026 21.4896Z" fill="#C2971A"/>
<path d="M131.197 23.3313C131.286 23.1838 131.33 22.9734 131.547 23.0331C131.878 23.1245 131.963 23.7239 132.049 23.8708C132.135 24.0177 132.356 24.1762 132.297 24.3945C132.297 24.3945 132.332 24.1793 132.104 24.0755C131.927 23.9946 131.898 24.0183 131.804 24.0496C131.632 24.1076 131.423 24.0936 131.105 23.9643C130.99 23.9173 130.92 23.8198 130.928 23.6944C130.939 23.545 131.021 23.4987 131.123 23.4194C131.152 23.397 131.175 23.366 131.197 23.3313Z" fill="#C2971A"/>
<path d="M135.363 24.6446C135.307 24.8081 135.31 25.0229 135.085 25.0113C134.742 24.9935 134.53 24.4264 134.414 24.3015C134.298 24.1765 134.048 24.0694 134.058 23.8437C134.058 23.8437 134.071 24.0613 134.316 24.1136C134.507 24.1543 134.53 24.1249 134.614 24.0742C134.77 23.9806 134.977 23.9491 135.315 24.007C135.437 24.028 135.528 24.108 135.546 24.2323C135.569 24.3804 135.498 24.4433 135.416 24.5426C135.393 24.5708 135.376 24.6061 135.363 24.6446Z" fill="#C2971A"/>
<path d="M110.89 22.4577C111.037 22.5479 111.248 22.5923 111.188 22.8081C111.095 23.1384 110.494 23.2209 110.347 23.3063C110.199 23.3916 110.039 23.6118 109.821 23.5525C109.821 23.5525 110.036 23.588 110.141 23.3609C110.223 23.1841 110.199 23.155 110.168 23.062C110.11 22.8902 110.125 22.6814 110.255 22.3652C110.303 22.2507 110.401 22.1804 110.526 22.1894C110.676 22.2001 110.722 22.2823 110.802 22.3841C110.824 22.4129 110.855 22.4365 110.89 22.4577Z" fill="#C2971A"/>
<path d="M125.538 19.8924C125.613 19.7731 125.653 19.6019 125.829 19.6539C126.098 19.7335 126.158 20.2243 126.226 20.3457C126.294 20.4672 126.472 20.5998 126.421 20.7773C126.421 20.7773 126.453 20.6021 126.268 20.5138C126.124 20.4452 126.1 20.4641 126.024 20.4883C125.882 20.533 125.711 20.5184 125.454 20.4082C125.361 20.3682 125.304 20.2873 125.313 20.185C125.324 20.0631 125.392 20.0266 125.476 19.9634C125.5 19.9452 125.52 19.9205 125.538 19.8924Z" fill="#C2971A"/>
<path d="M10.8457 15.4483C11.2182 15.4662 11.7057 15.4838 12.3089 15.5014C12.9114 15.5192 13.5058 15.5279 14.091 15.5279C14.9244 15.5279 15.7223 15.5192 16.4851 15.5014C17.2472 15.4838 17.7884 15.4748 18.1076 15.4748C20.2531 15.4748 21.8581 15.9613 22.9221 16.9337C23.9861 17.9066 24.5181 19.1621 24.5181 20.7008C24.5181 21.3375 24.4117 22.0053 24.199 22.7038C23.9861 23.4027 23.618 24.048 23.095 24.6403C22.5719 25.2331 21.8581 25.7148 20.9538 26.0863C20.0493 26.4576 18.9056 26.6431 17.5224 26.6431H14.9689V26.1128H17.2565C18.5153 26.1128 19.4775 25.874 20.1425 25.3964C20.8074 24.9188 21.2597 24.2914 21.499 23.5129C21.7385 22.7348 21.8581 21.8947 21.8581 20.9926C21.8581 19.3126 21.5256 18.0571 20.8606 17.2258C20.1957 16.3944 19.0562 15.9786 17.4425 15.9786C16.6267 15.9786 16.0948 16.1291 15.8465 16.4296C15.598 16.7306 15.4742 17.3408 15.4742 18.2601V31.4183C15.4742 32.055 15.5407 32.5325 15.6738 32.8509C15.8068 33.1693 16.0681 33.3815 16.4585 33.4876C16.8484 33.5937 17.4159 33.6647 18.1608 33.6999V34.2305C17.6994 34.1953 17.1142 34.1733 16.4052 34.1641C15.6957 34.1554 14.9774 34.1509 14.2506 34.1509C13.559 34.1509 12.9114 34.1554 12.3089 34.1641C11.7057 34.1733 11.2182 34.1953 10.8457 34.2305V33.6999C11.4485 33.6647 11.9052 33.5937 12.2156 33.4876C12.5258 33.3815 12.7345 33.1693 12.8409 32.8509C12.9473 32.5325 13.0004 32.055 13.0004 31.4183V18.2601C13.0004 17.6061 12.9473 17.124 12.8409 16.8146C12.7345 16.5051 12.5258 16.2929 12.2156 16.1778C11.9052 16.0628 11.4485 15.9965 10.8457 15.9786V15.4483Z" fill="#1D1D1D"/>
<path d="M37.0736 21.0192C37.0025 22.0274 36.9714 22.7966 36.9805 23.3272C36.9892 23.8578 36.9938 24.3444 36.9938 24.7862C36.9938 25.2285 37.0025 25.7148 37.0203 26.2454C37.0379 26.7757 37.0823 27.5453 37.1535 28.5535H36.5415C36.4706 27.9874 36.3862 27.4348 36.289 26.8954C36.1913 26.3559 35.9785 25.9138 35.6505 25.5689C35.3222 25.224 34.7682 25.0516 33.9881 25.0516V24.521C34.5733 24.521 35.0207 24.4016 35.3311 24.1629C35.6413 23.9241 35.8673 23.619 36.0097 23.2476C36.1512 22.8761 36.2492 22.4915 36.3023 22.0937C36.3553 21.6957 36.4086 21.3375 36.4617 21.0192H37.0736ZM36.3023 24.521V25.0516H31.4344V24.521H36.3023ZM40.8773 15.4483C40.8063 16.0674 40.7576 16.6686 40.7311 17.252C40.7046 17.8359 40.6913 18.278 40.6913 18.5785C40.6913 18.8968 40.7 19.2019 40.7178 19.4937C40.7352 19.7856 40.753 20.0289 40.7709 20.2233H40.1592C40.0528 19.18 39.9021 18.353 39.7069 17.7428C39.5118 17.1326 39.1791 16.6995 38.7095 16.4431C38.2394 16.1868 37.5346 16.0582 36.5948 16.0582H34.3871C33.784 16.0582 33.3272 16.1072 33.0172 16.2044C32.7068 16.3016 32.4984 16.5051 32.392 16.8146C32.2856 17.124 32.2323 17.6061 32.2323 18.2601V31.4183C32.2323 32.055 32.2856 32.5325 32.392 32.8509C32.4984 33.1693 32.7068 33.3774 33.0172 33.4744C33.3272 33.5718 33.784 33.6202 34.3871 33.6202H36.3288C37.4461 33.6202 38.2927 33.4703 38.8692 33.1693C39.4452 32.8688 39.862 32.378 40.1194 31.6969C40.3763 31.0164 40.5668 30.0918 40.6913 28.9246H41.303C41.2497 29.4021 41.2232 30.0388 41.2232 30.835C41.2232 31.1709 41.2364 31.6531 41.2632 32.2805C41.2897 32.9086 41.3382 33.5586 41.4094 34.2305C40.5051 34.1953 39.485 34.1733 38.3504 34.1641C37.2152 34.1554 36.2046 34.1509 35.3181 34.1509C34.9278 34.1509 34.4268 34.1509 33.8151 34.1509C33.2032 34.1509 32.5425 34.1554 31.8334 34.1641C31.124 34.1733 30.4056 34.1819 29.6789 34.1906C28.9516 34.1999 28.2598 34.2131 27.604 34.2305V33.6999C28.2068 33.6647 28.6634 33.5937 28.9738 33.4876C29.284 33.3815 29.4927 33.1693 29.599 32.8509C29.7054 32.5325 29.7587 32.055 29.7587 31.4183V18.2601C29.7587 17.6061 29.7054 17.124 29.599 16.8146C29.4927 16.5051 29.284 16.2929 28.9738 16.1778C28.6634 16.0628 28.2068 15.9965 27.604 15.9786V15.4483C28.2598 15.4662 28.9516 15.4792 29.6789 15.4878C30.4056 15.497 31.124 15.5057 31.8334 15.5144C32.5425 15.5236 33.2032 15.5279 33.8151 15.5279C34.4268 15.5279 34.9278 15.5279 35.3181 15.5279C36.1334 15.5279 37.0604 15.5236 38.0976 15.5144C39.1353 15.5057 40.0615 15.4838 40.8773 15.4483Z" fill="#1D1D1D"/>
<path d="M54.4701 21.0192C54.3992 22.0274 54.3678 22.7966 54.3773 23.3272C54.3859 23.8578 54.3903 24.3444 54.3903 24.7862C54.3903 25.2285 54.3992 25.7148 54.4171 26.2454C54.4344 26.7757 54.4791 27.5453 54.55 28.5535H53.9383C53.8671 27.9874 53.7829 27.4348 53.6855 26.8954C53.5878 26.3559 53.375 25.9138 53.047 25.5689C52.7187 25.224 52.1646 25.0516 51.3846 25.0516V24.521C51.9698 24.521 52.4174 24.4016 52.7279 24.1629C53.0381 23.9241 53.2641 23.619 53.4062 23.2476C53.548 22.8761 53.6457 22.4915 53.699 22.0937C53.7521 21.6957 53.8051 21.3375 53.8584 21.0192H54.4701ZM53.699 24.521V25.0516H48.8311V24.521H53.699ZM58.274 15.4483C58.2028 16.0674 58.1544 16.6686 58.1278 17.252C58.1011 17.8359 58.0878 18.278 58.0878 18.5785C58.0878 18.8968 58.0965 19.2019 58.1143 19.4937C58.1319 19.7856 58.1498 20.0289 58.1676 20.2233H57.5559C57.4496 19.18 57.2985 18.353 57.1037 17.7428C56.9083 17.1326 56.5756 16.6995 56.106 16.4431C55.6361 16.1868 54.9311 16.0582 53.9913 16.0582H51.7835C51.1805 16.0582 50.7236 16.1072 50.4137 16.2044C50.1033 16.3016 49.8951 16.5051 49.7885 16.8146C49.6821 17.124 49.6291 17.6061 49.6291 18.2601V31.4183C49.6291 32.055 49.6821 32.5325 49.7885 32.8509C49.8951 33.1693 50.1033 33.3774 50.4137 33.4744C50.7236 33.5718 51.1805 33.6202 51.7835 33.6202H53.7253C54.8426 33.6202 55.6892 33.4703 56.2657 33.1693C56.8417 32.8688 57.2585 32.378 57.5159 31.6969C57.7728 31.0164 57.9636 30.0918 58.0878 28.9246H58.6995C58.6464 29.4021 58.6199 30.0388 58.6199 30.835C58.6199 31.1709 58.6332 31.6531 58.6597 32.2805C58.6862 32.9086 58.735 33.5586 58.8061 34.2305C57.9016 34.1953 56.8817 34.1733 55.7471 34.1641C54.612 34.1554 53.601 34.1509 52.7146 34.1509C52.3243 34.1509 51.8236 34.1509 51.2116 34.1509C50.5999 34.1509 49.939 34.1554 49.2301 34.1641C48.5207 34.1733 47.8024 34.1819 47.0754 34.1906C46.3481 34.1999 45.6566 34.2131 45.0005 34.2305V33.6999C45.6033 33.6647 46.0601 33.5937 46.3706 33.4876C46.6805 33.3815 46.8892 33.1693 46.9958 32.8509C47.1022 32.5325 47.1552 32.055 47.1552 31.4183V18.2601C47.1552 17.6061 47.1022 17.124 46.9958 16.8146C46.8892 16.5051 46.6805 16.2929 46.3706 16.1778C46.0601 16.0628 45.6033 15.9965 45.0005 15.9786V15.4483C45.6566 15.4662 46.3481 15.4792 47.0754 15.4878C47.8024 15.497 48.5207 15.5057 49.2301 15.5144C49.939 15.5236 50.5999 15.5279 51.2116 15.5279C51.8236 15.5279 52.3243 15.5279 52.7146 15.5279C53.5301 15.5279 54.4569 15.5236 55.4943 15.5144C56.5318 15.5057 57.4582 15.4838 58.274 15.4483Z" fill="#1D1D1D"/>
<path d="M62.3965 15.4483C62.7689 15.4662 63.2566 15.4838 63.8597 15.5014C64.4622 15.5192 65.0565 15.5279 65.6417 15.5279C66.4751 15.5279 67.273 15.5192 68.0357 15.5014C68.7979 15.4838 69.3392 15.4748 69.6583 15.4748C71.8039 15.4748 73.4089 15.9613 74.4731 16.9337C75.5368 17.9066 76.069 19.1621 76.069 20.7008C76.069 21.3375 75.9626 22.0053 75.7498 22.7038C75.5368 23.4027 75.1687 24.048 74.6458 24.6403C74.1226 25.2331 73.4089 25.7148 72.5046 26.0863C71.6001 26.4576 70.4565 26.6431 69.0732 26.6431H66.5197V26.1128H68.8074C70.0662 26.1128 71.0284 25.874 71.6934 25.3964C72.3582 24.9188 72.8105 24.2914 73.05 23.5129C73.2893 22.7348 73.4089 21.8947 73.4089 20.9926C73.4089 19.3126 73.0765 18.0571 72.4115 17.2258C71.7465 16.3944 70.607 15.9786 68.9933 15.9786C68.1775 15.9786 67.6454 16.1291 67.3975 16.4296C67.1488 16.7306 67.0251 17.3408 67.0251 18.2601V31.4183C67.0251 32.055 67.0916 32.5325 67.2245 32.8509C67.3574 33.1693 67.6189 33.3815 68.0092 33.4876C68.3992 33.5937 68.9668 33.6647 69.7116 33.6999V34.2305C69.2502 34.1953 68.665 34.1733 67.9561 34.1641C67.2465 34.1554 66.5284 34.1509 65.8014 34.1509C65.1099 34.1509 64.4622 34.1554 63.8597 34.1641C63.2566 34.1733 62.7689 34.1953 62.3965 34.2305V33.6999C62.9993 33.6647 63.4561 33.5937 63.7666 33.4876C64.0765 33.3815 64.2852 33.1693 64.3918 32.8509C64.4982 32.5325 64.5512 32.055 64.5512 31.4183V18.2601C64.5512 17.6061 64.4982 17.124 64.3918 16.8146C64.2852 16.5051 64.0765 16.2929 63.7666 16.1778C63.4561 16.0628 62.9993 15.9965 62.3965 15.9786V15.4483Z" fill="#1D1D1D"/>
<path d="M95.4601 15.448V15.9784C94.857 15.9962 94.4004 16.0845 94.0903 16.2439C93.7798 16.4028 93.5717 16.6594 93.4653 17.0133C93.3587 17.3671 93.3056 17.8711 93.3056 18.5252V26.5105C93.3056 27.7484 93.2258 28.8274 93.0661 29.7467C92.9066 30.6666 92.6227 31.4625 92.2151 32.1344C91.7715 32.8772 91.1243 33.4741 90.2731 33.9251C89.4219 34.3761 88.4464 34.6016 87.3472 34.6016C86.496 34.6016 85.6846 34.4995 84.9132 34.2965C84.1418 34.0935 83.4635 33.7174 82.8784 33.169C82.3638 32.6742 81.9608 32.1522 81.6682 31.6038C81.3754 31.0558 81.1762 30.3838 81.0695 29.5876C80.9632 28.7917 80.9101 27.7928 80.9101 26.59V18.2599C80.9101 17.6058 80.8568 17.1237 80.7504 16.8143C80.644 16.5049 80.4354 16.2926 80.1254 16.1776C79.8148 16.0625 79.3581 15.9962 78.7554 15.9784V15.448C79.1278 15.4659 79.6153 15.4835 80.2183 15.5011C80.8211 15.519 81.4685 15.5276 82.1603 15.5276C82.7807 15.5276 83.397 15.519 84.0089 15.5011C84.6206 15.4835 85.1303 15.4659 85.5384 15.448V15.9784C84.9354 15.9962 84.4785 16.0625 84.1686 16.1776C83.8582 16.2926 83.6497 16.5049 83.5434 16.8143C83.437 17.1237 83.3839 17.6058 83.3839 18.2599V27.041C83.3839 27.943 83.4278 28.7963 83.5166 29.601C83.6054 30.4059 83.787 31.113 84.0622 31.7231C84.337 32.3334 84.7578 32.8109 85.3257 33.1557C85.893 33.5006 86.6465 33.6731 87.5865 33.6731C88.9342 33.6731 89.9759 33.3771 90.7121 32.7844C91.4478 32.192 91.9623 31.3742 92.2549 30.3306C92.5475 29.2871 92.6936 28.1112 92.6936 26.802V18.5252C92.6936 17.8711 92.6181 17.3671 92.4676 17.0133C92.3169 16.6594 92.0641 16.4028 91.7095 16.2439C91.3547 16.0845 90.8759 15.9962 90.2731 15.9784V15.448C90.5922 15.4659 91.0134 15.4835 91.5366 15.5011C92.0595 15.519 92.5429 15.5276 92.9862 15.5276C93.4474 15.5276 93.904 15.519 94.3563 15.5011C94.8086 15.4835 95.1762 15.4659 95.4601 15.448Z" fill="#1D1D1D"/>
<path d="M105.275 15.4483V15.9786C104.672 15.9965 104.215 16.0628 103.905 16.1778C103.594 16.2929 103.386 16.5051 103.28 16.8146C103.173 17.124 103.12 17.6061 103.12 18.2601V31.4183C103.12 32.055 103.173 32.5325 103.28 32.8509C103.386 33.1693 103.594 33.3774 103.905 33.4744C104.215 33.5718 104.672 33.6202 105.275 33.6202H107.216C108.05 33.6202 108.728 33.5321 109.252 33.355C109.775 33.1784 110.191 32.8999 110.502 32.5193C110.812 32.1392 111.047 31.6306 111.207 30.9939C111.366 30.3574 111.49 29.5792 111.579 28.6596H112.191C112.138 29.2077 112.111 29.9327 112.111 30.835C112.111 31.1709 112.124 31.6531 112.151 32.2805C112.177 32.9086 112.226 33.5586 112.297 34.2305C111.393 34.1953 110.373 34.1733 109.238 34.1641C108.103 34.1554 107.092 34.1509 106.206 34.1509C105.816 34.1509 105.315 34.1509 104.703 34.1509C104.091 34.1509 103.43 34.1554 102.721 34.1641C102.012 34.1733 101.294 34.1819 100.567 34.1906C99.8393 34.1999 99.1478 34.2131 98.4917 34.2305V33.6999C99.0945 33.6647 99.5511 33.5937 99.8618 33.4876C100.172 33.3815 100.38 33.1693 100.487 32.8509C100.593 32.5325 100.646 32.055 100.646 31.4183V18.2601C100.646 17.6061 100.593 17.124 100.487 16.8146C100.38 16.5051 100.172 16.2929 99.8618 16.1778C99.5511 16.0628 99.0945 15.9965 98.4917 15.9786V15.4483C98.8641 15.4662 99.3516 15.4838 99.9549 15.5014C100.557 15.5192 101.205 15.5279 101.897 15.5279C102.517 15.5279 103.134 15.5192 103.745 15.5014C104.357 15.4838 104.867 15.4662 105.275 15.4483Z" fill="#1D1D1D"/>
<path d="M153.359 15.4483C153.288 16.1207 153.239 16.7704 153.213 17.3979C153.186 18.026 153.173 18.5081 153.173 18.8438C153.173 19.2682 153.181 19.6664 153.199 20.0376C153.217 20.409 153.235 20.7365 153.253 21.0192H152.641C152.516 19.7815 152.348 18.804 152.135 18.0877C151.923 17.3714 151.55 16.8541 151.018 16.5357C150.486 16.2174 149.662 16.0582 148.544 16.0582H147.108V31.1531C147.108 31.8606 147.174 32.3912 147.307 32.7448C147.44 33.0989 147.702 33.3377 148.092 33.4611C148.482 33.5851 149.05 33.6647 149.794 33.6999V34.2305C149.333 34.1953 148.748 34.1733 148.039 34.1641C147.329 34.1554 146.611 34.1509 145.884 34.1509C145.086 34.1509 144.337 34.1554 143.637 34.1641C142.936 34.1733 142.373 34.1953 141.948 34.2305V33.6999C142.693 33.6647 143.26 33.5851 143.65 33.4611C144.04 33.3377 144.302 33.0989 144.435 32.7448C144.568 32.3912 144.634 31.8606 144.634 31.1531V16.0582H143.198C142.098 16.0582 141.278 16.2174 140.737 16.5357C140.196 16.8541 139.819 17.3714 139.607 18.0877C139.394 18.804 139.225 19.7815 139.101 21.0192H138.49C138.525 20.7365 138.547 20.409 138.556 20.0376C138.565 19.6664 138.569 19.2682 138.569 18.8438C138.569 18.5081 138.556 18.026 138.529 17.3979C138.503 16.7704 138.454 16.1207 138.383 15.4483C139.128 15.4662 139.939 15.4838 140.817 15.5014C141.695 15.5192 142.577 15.5279 143.464 15.5279C144.35 15.5279 145.157 15.5279 145.884 15.5279C146.611 15.5279 147.414 15.5279 148.292 15.5279C149.169 15.5279 150.052 15.5192 150.938 15.5014C151.825 15.4838 152.632 15.4662 153.359 15.4483Z" fill="#1D1D1D"/>
<path d="M160.673 24.8656C161.631 24.9013 162.385 24.941 162.934 24.985C163.484 25.0294 163.932 25.069 164.278 25.1043C164.623 25.14 164.956 25.1839 165.275 25.2369C166.463 25.4318 167.319 25.7901 167.842 26.3115C168.365 26.8333 168.751 27.6422 168.999 28.7389L169.664 31.4446C169.841 32.2232 170.023 32.7844 170.209 33.1292C170.396 33.4741 170.684 33.6379 171.074 33.62C171.375 33.6026 171.628 33.5052 171.832 33.3282C172.036 33.1516 172.253 32.9129 172.484 32.6119L172.883 32.9037C172.51 33.4522 172.125 33.8721 171.726 34.1638C171.327 34.4557 170.763 34.6016 170.036 34.6016C169.38 34.6016 168.804 34.407 168.307 34.0179C167.811 33.6291 167.438 32.8686 167.19 31.7364L166.605 29.0835C166.445 28.3233 166.263 27.6645 166.06 27.1074C165.856 26.5502 165.572 26.1125 165.209 25.7942C164.845 25.4758 164.308 25.3166 163.599 25.3166H160.727L160.673 24.8656ZM156.444 15.448C156.816 15.4659 157.304 15.4835 157.907 15.5011C158.51 15.519 159.104 15.5276 159.689 15.5276C160.522 15.5276 161.321 15.519 162.083 15.5011C162.845 15.4835 163.386 15.4746 163.706 15.4746C165.142 15.4746 166.335 15.6781 167.284 16.0845C168.232 16.4916 168.941 17.0441 169.411 17.7426C169.881 18.4415 170.116 19.2241 170.116 20.0904C170.116 20.621 170.01 21.1873 169.797 21.7883C169.584 22.3898 169.216 22.9555 168.693 23.4861C168.17 24.0167 167.456 24.4544 166.552 24.7993C165.647 25.1442 164.504 25.3166 163.121 25.3166H160.567V24.7859H162.855C164.114 24.7859 165.076 24.5871 165.741 24.1891C166.406 23.7911 166.858 23.2607 167.097 22.5974C167.337 21.9341 167.456 21.1959 167.456 20.3822C167.456 18.9853 167.124 17.902 166.459 17.1324C165.794 16.363 164.654 15.9784 163.041 15.9784C162.225 15.9784 161.693 16.1289 161.445 16.4294C161.196 16.7304 161.072 17.3405 161.072 18.2599V31.418C161.072 32.0548 161.125 32.5323 161.232 32.8506C161.338 33.169 161.547 33.3812 161.857 33.4874C162.167 33.5935 162.624 33.6644 163.227 33.6996V34.2302C162.819 34.195 162.309 34.173 161.697 34.1638C161.086 34.1552 160.469 34.1506 159.849 34.1506C159.157 34.1506 158.51 34.1552 157.907 34.1638C157.304 34.173 156.816 34.195 156.444 34.2302V33.6996C157.047 33.6644 157.503 33.5935 157.814 33.4874C158.124 33.3812 158.333 33.169 158.439 32.8506C158.546 32.5323 158.599 32.0548 158.599 31.418V18.2599C158.599 17.6058 158.546 17.1237 158.439 16.8143C158.333 16.5049 158.124 16.2926 157.814 16.1776C157.503 16.0625 157.047 15.9962 156.444 15.9784V15.448Z" fill="#1D1D1D"/>
<path d="M184.347 21.0192C184.276 22.0274 184.245 22.7966 184.254 23.3272C184.263 23.8578 184.267 24.3444 184.267 24.7862C184.267 25.2285 184.276 25.7148 184.294 26.2454C184.311 26.7757 184.356 27.5453 184.427 28.5535H183.815C183.744 27.9874 183.66 27.4348 183.562 26.8954C183.465 26.3559 183.252 25.9138 182.924 25.5689C182.596 25.224 182.042 25.0516 181.262 25.0516V24.521C181.847 24.521 182.294 24.4016 182.605 24.1629C182.915 23.9241 183.141 23.619 183.283 23.2476C183.425 22.8761 183.523 22.4915 183.576 22.0937C183.629 21.6957 183.682 21.3375 183.735 21.0192H184.347ZM183.576 24.521V25.0516H178.708V24.521H183.576ZM188.151 15.4483C188.08 16.0674 188.031 16.6686 188.005 17.252C187.978 17.8359 187.965 18.278 187.965 18.5785C187.965 18.8968 187.973 19.2019 187.991 19.4937C188.009 19.7856 188.026 20.0289 188.045 20.2233H187.433C187.327 19.18 187.175 18.353 186.98 17.7428C186.785 17.1326 186.453 16.6995 185.983 16.4431C185.513 16.1868 184.808 16.0582 183.868 16.0582H181.66C181.057 16.0582 180.601 16.1072 180.291 16.2044C179.98 16.3016 179.772 16.5051 179.665 16.8146C179.559 17.124 179.506 17.6061 179.506 18.2601V31.4183C179.506 32.055 179.559 32.5325 179.665 32.8509C179.772 33.1693 179.98 33.3774 180.291 33.4744C180.601 33.5718 181.057 33.6202 181.66 33.6202H183.602C184.72 33.6202 185.566 33.4703 186.143 33.1693C186.719 32.8688 187.135 32.378 187.393 31.6969C187.65 31.0164 187.841 30.0918 187.965 28.9246H188.576C188.523 29.4021 188.497 30.0388 188.497 30.835C188.497 31.1709 188.51 31.6531 188.537 32.2805C188.563 32.9086 188.612 33.5586 188.683 34.2305C187.779 34.1953 186.759 34.1733 185.624 34.1641C184.489 34.1554 183.478 34.1509 182.592 34.1509C182.201 34.1509 181.7 34.1509 181.089 34.1509C180.477 34.1509 179.816 34.1554 179.107 34.1641C178.398 34.1733 177.679 34.1819 176.952 34.1906C176.225 34.1999 175.533 34.2131 174.877 34.2305V33.6999C175.48 33.6647 175.937 33.5937 176.248 33.4876C176.557 33.3815 176.766 33.1693 176.873 32.8509C176.979 32.5325 177.032 32.055 177.032 31.4183V18.2601C177.032 17.6061 176.979 17.124 176.873 16.8146C176.766 16.5051 176.557 16.2929 176.248 16.1778C175.937 16.0628 175.48 15.9965 174.877 15.9786V15.4483C175.533 15.4662 176.225 15.4792 176.952 15.4878C177.679 15.497 178.398 15.5057 179.107 15.5144C179.816 15.5236 180.477 15.5279 181.089 15.5279C181.7 15.5279 182.201 15.5279 182.592 15.5279C183.407 15.5279 184.334 15.5236 185.371 15.5144C186.409 15.5057 187.335 15.4838 188.151 15.4483Z" fill="#1D1D1D"/>
<path d="M201.744 21.0192C201.673 22.0274 201.642 22.7966 201.651 23.3272C201.659 23.8578 201.664 24.3444 201.664 24.7862C201.664 25.2285 201.673 25.7148 201.691 26.2454C201.708 26.7757 201.752 27.5453 201.824 28.5535H201.212C201.141 27.9874 201.056 27.4348 200.959 26.8954C200.861 26.3559 200.649 25.9138 200.321 25.5689C199.992 25.224 199.438 25.0516 198.658 25.0516V24.521C199.243 24.521 199.691 24.4016 200.002 24.1629C200.312 23.9241 200.538 23.619 200.68 23.2476C200.821 22.8761 200.919 22.4915 200.972 22.0937C201.025 21.6957 201.079 21.3375 201.132 21.0192H201.744ZM200.972 24.521V25.0516H196.105V24.521H200.972ZM205.547 15.4483C205.476 16.0674 205.428 16.6686 205.401 17.252C205.375 17.8359 205.361 18.278 205.361 18.5785C205.361 18.8968 205.37 19.2019 205.388 19.4937C205.405 19.7856 205.423 20.0289 205.441 20.2233H204.829C204.723 19.18 204.572 18.353 204.377 17.7428C204.182 17.1326 203.849 16.6995 203.38 16.4431C202.91 16.1868 202.205 16.0582 201.265 16.0582H199.057C198.454 16.0582 197.997 16.1072 197.687 16.2044C197.377 16.3016 197.169 16.5051 197.062 16.8146C196.956 17.124 196.903 17.6061 196.903 18.2601V31.4183C196.903 32.055 196.956 32.5325 197.062 32.8509C197.169 33.1693 197.377 33.3774 197.687 33.4744C197.997 33.5718 198.454 33.6202 199.057 33.6202H200.999C202.116 33.6202 202.963 33.4703 203.539 33.1693C204.115 32.8688 204.532 32.378 204.79 31.6969C205.046 31.0164 205.237 30.0918 205.361 28.9246H205.973C205.92 29.4021 205.893 30.0388 205.893 30.835C205.893 31.1709 205.907 31.6531 205.933 32.2805C205.96 32.9086 206.008 33.5586 206.08 34.2305C205.175 34.1953 204.155 34.1733 203.021 34.1641C201.886 34.1554 200.875 34.1509 199.988 34.1509C199.598 34.1509 199.097 34.1509 198.485 34.1509C197.873 34.1509 197.213 34.1554 196.504 34.1641C195.794 34.1733 195.076 34.1819 194.349 34.1906C193.622 34.1999 192.93 34.2131 192.274 34.2305V33.6999C192.877 33.6647 193.334 33.5937 193.644 33.4876C193.954 33.3815 194.163 33.1693 194.269 32.8509C194.376 32.5325 194.429 32.055 194.429 31.4183V18.2601C194.429 17.6061 194.376 17.124 194.269 16.8146C194.163 16.5051 193.954 16.2929 193.644 16.1778C193.334 16.0628 192.877 15.9965 192.274 15.9786V15.4483C192.93 15.4662 193.622 15.4792 194.349 15.4878C195.076 15.497 195.794 15.5057 196.504 15.5144C197.213 15.5236 197.873 15.5279 198.485 15.5279C199.097 15.5279 199.598 15.5279 199.988 15.5279C200.804 15.5279 201.73 15.5236 202.768 15.5144C203.805 15.5057 204.732 15.4838 205.547 15.4483Z" fill="#1D1D1D"/>
</svg>
